<?xml version="1.0" standalone="no"?><!DOCTYPE svg PUBLIC "-//W3C//DTD SVG 1.1//EN" "http://www.w3.org/Graphics/SVG/1.1/DTD/svg11.dtd"><svg class="icon" width="64px" height="64.00px" viewBox="0 0 1024 1024" version="1.1" xmlns="http://www.w3.org/2000/svg"><path d="M1005.42722 669.9l-95.5-85c-3.1-230.1-190.4-416.2-421.2-416.2-98.6 0-189.2 33.5-260.5 90.6L191.02722 225.7c-12.4-10.5-31-9.9-41.6 2.5-10.5 12.4-9.9 31 2.5 41.6l32.9 29.2 25.4 22.3c15.5 13.6 16.7 37.2 3.1 52.1-9.9 11.2-26.1 15.5-39.7 10.5l-75.1-65.1c-24.2-21.7-62-19.2-83.7 5-21.7 24.2-19.2 62 5 83.7l65.7 58.3c-11.8 39.1-18.6 80.6-18.6 124 0 232.6 188.6 421.1 421.1 421.1 127.2 0 240.7-56.4 318.2-145.1l46.5 40.9c10.5 9.3 24.8 14.9 39.1 14.9 16.1 0 32.9-6.8 44-19.8 21.7-24.2 19.2-62-5-83.7l-105.4-93c-13-16.7-13-40.3 1.9-57.1 13.7-15.5 36-19.2 54-9.9l74.4 66.4c6.8 6.2 15.5 9.3 24.8 9.3 9.9 0 20.5-4.3 27.9-12.4 13.7-14.9 12.5-37.9-3-51.5z m0 0" fill="#E4ECF2" /><path d="M193.52722 85.6c0 7.4 6.2 13.6 13.6 14.3 7.4 0 13.6-6.2 14.3-13.6 0-7.4-6.2-13.6-13.6-13.6-8.1-1.4-14.3 4.8-14.3 12.9z m545.8 18.6a19.474 19.474 0 0 1-19.8-19.8c0-11.2 8.7-19.9 19.8-19.9 11.2 0 19.8 8.7 19.8 19.9 0 11.1-9.3 19.8-19.8 19.8z m0-34.8c-8.1 0-14.9 6.8-14.9 14.9 0 8.1 6.8 14.9 14.9 14.9 8.1 0 14.9-6.8 14.9-14.9 0-8-6.8-14.9-14.9-14.9zM274.12722 818.1h-12.4V675.4h12.4v142.7z m2.5-154.5l-11.8-3.7 24.8-73.8c11.2-33.5 22.3-67 33.5-101.1l11.8 3.7c-11.2 33.5-22.3 67-33.5 101.1l-24.8 73.8z m0 0" fill="#99B2C9" /><path d="M261.72722 676c-0.6-5.6 1.2-10.5 2.5-14.9l0.6-1.2 11.8 4.3-0.6 1.2c-1.2 3.7-2.5 6.8-1.9 9.9l-12.4 0.7z m19.8 164.4c-4.3 0-9.9-0.6-14.3-5-5.6-5-5-11.8-5-16.7v-1.2h12.4v1.2c0 3.1 0 6.2 1.2 7.4h0.6c1.2 1.2 4.3 1.2 7.4 1.2h439.1c2.5 0 4.3-0.6 4.3-1.2l0.6-0.6c0.6 0 1.2-1.2 1.2-4.3V675.4c0-2.5 0-4.3-0.6-6.2-8.1-24.2-16.1-48.4-24.2-71.9-11.8-36.6-24.2-72.6-36.6-109.2-0.6-2.5-2.5-3.7-4.3-3.7H344.82722c-2.5 0-4.3 0-6.2 0.6-1.3 0.7-2.4 1.8-3.1 3.1l-12.4-2.5c1.9-5.6 6.2-9.9 11.8-11.2 3.1-1.2 6.8-0.6 9.9-0.6h317.6c7.5 0 14.3 5 16.8 12.4 12.4 36 24.2 72.6 36.6 108.5l24.2 72.6c1.2 3.7 1.2 6.8 0.6 9.9v145.1c0 6.2-1.9 10.5-5 13.7-4.3 4.3-10.5 5-13.7 5H282.82722c-0.6-0.6-1.2-0.6-1.3-0.6z m0 0" fill="#99B2C9" /><path d="M500.52722 751.7c-14.3 0-27.9-4.3-39.1-13-16.1-11.8-26.7-30.4-27.3-50.2 0-1.9 0-5-1.2-6.2l-0.6-0.6c-0.6-0.6-1.9-0.6-4.3-0.6H292.12722c-3.7 0-6.2-2.5-6.2-6.2s2.5-6.2 6.2-6.2h135.8c4.3 0 9.3 0.6 13 4.3 5 4.3 5.6 11.2 5.6 14.9 0.6 15.5 9.3 31.6 22.3 40.9 10 7.4 22.3 11.2 34.7 10.5 14.3-0.6 28.5-7.4 38.5-18.6 8.2-9.6 13-21.5 13.7-34.1 0-3.1 0.6-9.3 5-13.7 3.7-4.3 9.9-5 13.6-5h135.8c3.7 0 6.2 2.5 6.2 6.2s-2.5 6.2-6.2 6.2H574.32722c-3.1 0-4.3 0.6-4.3 1.2l-0.6 0.6c-1.2 0.6-1.2 3.7-1.2 5-0.6 15.4-6.5 30.1-16.7 41.6-11.8 13.6-29.2 21.7-47.1 22.3-1.4 0.7-2.7 0.7-3.9 0.7z m480.7-424.9s-9.9 33.5-29.8 38.5c0 0 24.8 9.9 29.8 34.7 0 0 3.7-36 32.2-36.6 0 0-31-16.7-32.2-36.6z m31-54.5s-3.7 12.4-11.2 14.3c0 0 9.3 3.7 11.2 13 0 0 1.2-13.6 11.8-13.6 0-0.1-11.2-6.3-11.8-13.7zM405.62722 13s-7.4 25.4-22.9 29.1c0 0 19.2 7.4 22.9 26.7 0 0 3.1-27.3 24.8-27.9 0 0-23.6-13-24.8-27.9z m223.9 221.4l62.7 27.9 101.7-80.6-77.5 84.4 77.5 25.4 42.8-156.3-207.2 99.2z m86.2 50.9l-4.3 47.8 26.7-34.7-22.4-13.1zM461.42722 531.5c-8.9 5-18 9.6-27.3 13.6l2.5 6.8c0.6 0 12.4-5 28.5-13.6 0-0.6-3.7-6.8-3.7-6.8z m34.8-23.5c-7.4 5.6-14.9 11.2-22.9 16.1-1.9 1.2-2.5 3.1-1.2 5 1.2 1.9 3.1 2.5 5 1.2 8.2-5 16.1-10.6 23.6-16.7 0.8-0.5 1.3-1.4 1.5-2.3 0.1-1-0.2-1.9-0.8-2.6-1.5-2-3.4-2-5.2-0.7z m40.9-38.5c-1.9-1.2-3.7-0.6-5 0.6-6.4 9-13.6 17.3-21.7 24.8-1.2 1.4-1.2 3.5 0 5 1.4 1.2 3.5 1.2 5 0 8.7-8.1 16.1-17.4 22.3-26 1.3-0.7 0.6-3.2-0.6-4.4z m16.7-80c0 1.9 1.9 3.7 4.3 3.1 1 0 2-0.6 2.6-1.4 0.6-0.9 0.8-1.9 0.5-2.9-1.9-16.7-8.1-29.2-17.4-37.8-1.9-1.2-3.7-1.2-5 0.6-0.7 0.7-1 1.7-0.8 2.6 0.1 1 0.7 1.8 1.5 2.3 7.5 7.4 12.5 18.6 14.3 33.5z m-60.1-37.2c0.6 0 1.2 0 1.9-0.6 9.9-4.3 21.1-5.6 30.4-3.1 1.9 0.6 4.3-0.6 4.3-2.5 0.6-1.9-0.6-4.3-2.5-4.3-11.2-3.1-24.2-1.9-35.4 3.1-1.9 0.6-2.5 3.1-1.9 5 0.1 1.1 1.3 2.4 3.2 2.4z m-20.5 37.8c-0.6-3.1-0.6-6.2-0.6-9.3l3.7-11.8c1.9-3.1 3.7-5.6 5.6-8.1 1.2-1.4 1.2-3.5 0-5-1.4-1.2-3.5-1.2-5 0-9.9 9.9-13.6 22.9-10.5 35.4 0.6 1.9 2.5 3.1 4.3 2.5 1.3 0 2.5-1.8 2.5-3.7z m1.3 13c-1.9 1.2-1.9 3.7-1.2 5 3.7 5.6 9.3 11.2 15.5 16.7 2.5 1.9 4.3 3.7 6.8 5.6 1.9 1.2 3.7 0.6 5-0.6 1.2-1.2 0.6-3.7-0.6-5-2.5-1.9-4.3-3.1-6.8-5-5.6-5-10.5-9.9-14.3-14.9-0.7-2.4-3.2-3-4.4-1.8z m58.2 42.8c1.9 0 3.7-1.9 3.7-3.7s-1.2-3.7-3.1-3.7c-7.5-1.3-14.8-3.6-21.7-6.8-1.9-1.2-4.3 0-5 1.9-1.2 1.9 0 4.3 1.9 5 7.5 3 15.6 6.1 24.2 7.3-0.6 0 0 0 0 0z m28-9.9c-1.2 0.6-3.1 0.6-4.3 1.2 2.5-8.7 4.3-18 5-26.7 0-1.9-1.2-3.7-3.7-3.7-1.9 0-3.7 1.2-3.7 3.7-0.6 9.9-2.5 19.2-6.2 28.5h-4.3c-1.9 0-3.7 1.9-3.7 3.7 0 1.9 1.9 3.7 3.7 3.7h1.2c-1.2 3.7-3.1 6.8-5 10.5-0.6 1.9 0 4.3 1.9 5 1.9 0.6 3.7 0 5-1.2 2.5-5 5-9.3 6.8-14.3l9.3-1.9c1.9-0.6 3.1-2.5 2.5-4.3-0.2-3.6-2.7-4.8-4.5-4.2z m44-25.4c-8 6.9-16.5 13.1-25.4 18.6-1.9 1.2-2.5 3.1-1.2 5 1.2 1.9 3.1 2.5 5 1.2 9.7-5.5 18.8-11.9 27.3-19.2 0.8-0.5 1.3-1.4 1.5-2.3 0.1-1-0.2-1.9-0.8-2.6-2.7-2-5.2-2-6.4-0.7z m37.8-37.2c-1.9-1.2-3.7-0.6-5 0.6-6.1 7.9-12.5 15.6-19.2 22.9-1.2 1.4-1.2 3.5 0 5 1.2 1.2 3.7 1.2 5 0 6.8-6.8 13-14.9 19.8-23.6 0.7-0.7 1-1.7 0.8-2.6 0-0.9-0.6-1.8-1.4-2.3z m30.4-47.8c-1.9-1.2-4.3-0.6-5 1.2-5.6 10.5-12.4 20.5-18.6 30.4-1.2 1.9-0.6 3.7 0.6 5 1.9 1.2 3.7 0.6 5-0.6 6.8-9.9 13-20.5 19.2-31 1.3-1.9 0.7-4.4-1.2-5z m23.6-47.7c-1.9-0.6-4.3 0-5 1.9 0 0-5 11.8-13 27.9-1.2 1.9 0 4.3 1.9 5 1.9 1.2 4.3 0 5-1.9 8.6-16.8 13.6-28 13.6-28.6 0.6-1.3-0.6-3.1-2.5-4.3z m0 0" fill="#99B2C9" /></svg>